<?xml version="1.0" encoding="UTF-8"?>
<svg id="_Слой_1" data-name="Слой_1" xmlns="http://www.w3.org/2000/svg" version="1.1" xmlns:xlink="http://www.w3.org/1999/xlink" viewBox="0 0 512 512">
  <!-- Generator: Adobe Illustrator 30.5.1, SVG Export Plug-In . SVG Version: 2.1.4 Build 3)  -->
  <defs>
    <style>
      .st0 {
        fill: #fff;
      }

      .st1 {
        fill: url(#_Безымянный_градиент);
      }
    </style>
    <linearGradient id="_Безымянный_градиент" data-name="Безымянный градиент" x1="48" y1="470" x2="464" y2="42" gradientTransform="translate(0 512) scale(1 -1)" gradientUnits="userSpaceOnUse">
      <stop offset="0" stop-color="#ff007a"/>
      <stop offset=".42" stop-color="#ff4b23"/>
      <stop offset="1" stop-color="#ffcf2f"/>
    </linearGradient>
  </defs>
  <rect class="st1" width="512" height="512" rx="108" ry="108"/>
  <path class="st0" d="M374.31,154.65c-66.48-1.94-118.31,70.8-118.31,70.8,0,0-51.83-72.74-118.31-70.8-66.47,1.94-95.5,61-94.21,101.35-1.29,40.35,27.74,99.41,94.21,101.35,66.48,1.94,118.31-70.8,118.31-70.8,0,0,51.83,72.74,118.31,70.8,66.47-1.94,95.5-61,94.21-101.35,1.29-40.35-27.74-99.41-94.21-101.35h0ZM98.49,255.59c.34-92.35,89.53-7.5,97.24,0h.53l-.27.27.27.27h-.53c-7.71,7.5-96.9,92.35-97.24,0v-.54h0ZM220.39,308.58s-81.35,90.05-145.95,0v-16.1c64.6,90.05,145.95,0,145.95,0v16.1ZM317.38,255.86h.53c7.71-7.5,97.24-92.35,97.58,0,0,.09,0,.18.01.27-.01.09-.01.18-.01.27-.34,92.35-89.87,7.96-97.58.46h-.53l.27-.27-.27-.27v-.46ZM439.27,308.58c-64.6,90.05-145.95,0-145.95,0v-16.1s81.35,90.05,145.95,0v16.1Z"/>
</svg>