<?xml version="1.0" encoding="UTF-8"?>
<svg xmlns="http://www.w3.org/2000/svg" viewBox="0 0 512 512" role="img" aria-labelledby="title">
  <title id="title">Lingo</title>
  <defs>
    <linearGradient id="brand-gradient" x1="48" y1="42" x2="464" y2="470" gradientUnits="userSpaceOnUse">
      <stop offset="0" stop-color="#ff007a"/>
      <stop offset="0.42" stop-color="#ff4b23"/>
      <stop offset="1" stop-color="#ffcf2f"/>
    </linearGradient>
  </defs>
  <rect width="512" height="512" rx="108" fill="url(#brand-gradient)"/>
  <path fill="#fff" d="M382.36 152.1C315.88 150.16 264.05 222.9 264.05 222.9s-51.83-72.74-118.31-70.8c-66.47 1.94-95.5 61-94.21 101.35-1.29 40.35 27.74 99.41 94.21 101.35 66.48 1.94 118.31-70.8 118.31-70.8s51.83 72.74 118.31 70.8c66.47-1.94 95.5-61 94.21-101.35 1.29-40.35-27.74-99.41-94.21-101.35ZM106.54 253.04c.34-92.35 89.53-7.5 97.24 0h.53l-.27.27.27.27h-.53c-7.71 7.5-96.9 92.35-97.24 0v-.54Zm121.9 52.99s-81.35 90.05-145.95 0v-16.1c64.6 90.05 145.95 0 145.95 0v16.1Zm96.99-52.72h.53c7.71-7.5 97.24-92.35 97.58 0 0 .09 0 .18.01.27-.01.09-.01.18-.01.27-.34 92.35-89.87 7.96-97.58.46h-.53l.27-.27-.27-.27Zm121.89 52.72c-64.6 90.05-145.95 0-145.95 0v-16.1s81.35 90.05 145.95 0v16.1Z"/>
</svg>
